<?xml version="1.0" encoding="UTF-8" standalone="no"?>
<!-- Created with Inkscape (http://www.inkscape.org/) -->

<svg
   xmlns:osb="http://www.openswatchbook.org/uri/2009/osb"
   xmlns:dc="http://purl.org/dc/elements/1.1/"
   xmlns:cc="http://creativecommons.org/ns#"
   xmlns:rdf="http://www.w3.org/1999/02/22-rdf-syntax-ns#"
   xmlns:svg="http://www.w3.org/2000/svg"
   xmlns="http://www.w3.org/2000/svg"
   xmlns:sodipodi="http://sodipodi.sourceforge.net/DTD/sodipodi-0.dtd"
   xmlns:inkscape="http://www.inkscape.org/namespaces/inkscape"
   id="svg3204"
   version="1.1"
   inkscape:version="0.48.4 r9939"
   width="300"
   height="300"
   sodipodi:docname="sphere_pano_icona-300x267.png">
  <metadata
     id="metadata3210">
    <rdf:RDF>
      <cc:Work
         rdf:about="">
        <dc:format>image/svg+xml</dc:format>
        <dc:type
           rdf:resource="http://purl.org/dc/dcmitype/StillImage" />
        <dc:title></dc:title>
      </cc:Work>
    </rdf:RDF>
  </metadata>
  <defs
     id="defs3208">
    <linearGradient
       id="linearGradient3996"
       osb:paint="solid">
      <stop
         style="stop-color:#ffffff;stop-opacity:1;"
         offset="0"
         id="stop3998" />
    </linearGradient>
  </defs>
  <sodipodi:namedview
     pagecolor="#ffffff"
     bordercolor="#666666"
     borderopacity="1"
     objecttolerance="10"
     gridtolerance="10"
     guidetolerance="10"
     inkscape:pageopacity="0"
     inkscape:pageshadow="2"
     inkscape:window-width="1596"
     inkscape:window-height="848"
     id="namedview3206"
     showgrid="false"
     inkscape:zoom="0.88389513"
     inkscape:cx="-144.28259"
     inkscape:cy="105.6455"
     inkscape:window-x="0"
     inkscape:window-y="0"
     inkscape:window-maximized="1"
     inkscape:current-layer="svg3204" />
  <path
     style="fill:#ffffff;fill-opacity:1;fill-rule:nonzero;stroke:none"
     d="m 228.47651,124.79874 c -3.5806,-1.78786 -6.07567,-4.48699 -8.18222,-8.85143 -1.97613,-4.09424 -2.06654,-5.5931 -0.45707,-7.57783 1.81111,-2.2334 3.09752,-3.02621 5.24434,-3.2321 2.87728,-0.27593 5.26548,0.99373 9.15716,4.86833 5.11624,5.09379 6.74584,9.5903 4.7264,13.04142 -2.059,3.51873 -5.72382,4.13076 -10.48861,1.75161 z"
     id="path5474"
     inkscape:connector-curvature="0" />
  <path
     style="fill:#ffffff;fill-opacity:1;fill-rule:nonzero;stroke:none"
     d="m 142.2075,257.75711 c -4.35961,-0.20375 -9.96482,-0.79204 -12.45602,-1.30732 -10.413,-2.15381 -24.80026,-7.86809 -34.42921,-13.67445 -7.732065,-4.66254 -12.374985,-8.29676 -20.581175,-16.10983 -6.539436,-6.22616 -8.122125,-7.15562 -15.11892,-8.87889 -2.760054,-0.67979 -5.965606,-1.71834 -7.123447,-2.30789 -6.623924,-3.37279 -14.514978,-16.89014 -19.637557,-33.63908 l -1.555484,-5.08586 -0.227214,-22.32129 c -0.255258,-25.07638 -0.05952,-27.30168 3.255758,-37.01377 3.997671,-11.71117 11.268914,-25.105666 15.110941,-27.836176 0.906567,-0.6443 3.804637,-1.86236 6.440155,-2.70683 2.635517,-0.844461 5.769456,-2.02657 6.964309,-2.626907 1.194851,-0.600336 5.780932,-4.58333 10.191289,-8.851098 12.47677,-12.073387 18.631124,-16.537372 31.232325,-22.653982 8.29438,-4.026084 16.73347,-6.898623 25.91026,-8.819444 8.59133,-1.798288 24.35128,-2.478427 33.0466,-1.426171 18.99621,2.298802 38.34709,10.29585 54.5625,22.548793 2.33535,1.76467 8.19534,7.046474 13.0222,11.73734 8.92871,8.677124 10.51725,9.750529 16.73489,11.308059 4.6944,1.17596 12.62902,14.045696 17.53232,28.436966 3.73924,10.97475 3.95441,12.87192 3.9142,34.51265 -0.0293,15.79077 -0.22211,20.56946 -1.01436,25.1454 -2.19006,12.64956 -9.62057,29.2684 -15.93489,35.63943 -3.08295,3.11064 -3.86832,3.57686 -8.49275,5.0416 -7.36246,2.33198 -8.61769,3.07993 -14.804,8.82126 -17.09797,15.86813 -31.66122,24.28789 -50.59896,29.25387 -10.31741,2.70549 -20.76273,3.52314 -35.94376,2.81362 l 0,0 z m 17.07465,-6.75611 c 1.81936,-0.66897 5.04629,-2.35896 7.17095,-3.75553 5.58953,-3.67408 15.98856,-15.85445 15.54052,-18.20258 -0.26005,-1.36289 -4.40483,-1.59673 -29.31174,-1.65376 -25.4676,-0.0583 -32.20827,0.24653 -32.68173,1.47801 -0.47111,1.22532 4.70648,8.39928 9.74913,13.50819 3.80108,3.85102 5.39881,5.00655 9.9104,7.16752 2.9583,1.41698 6.01569,2.70162 6.79419,2.85476 2.76192,0.54327 9.56759,-0.19765 12.82828,-1.39661 l 0,0 z m -36.13593,-4.65468 c 0.11754,-0.61809 -2.26151,-4.72945 -5.8279,-10.07154 -4.70119,-7.04187 -6.43328,-9.19671 -7.87613,-9.79841 -2.87312,-1.19817 -20.102111,-2.93641 -25.976157,-2.62075 -0.85635,0.0459 -1.557002,0.39475 -1.557002,0.77498 0,1.14727 6.285382,6.74869 11.812175,10.52679 8.509694,5.81722 24.014094,12.70758 27.815784,12.36171 0.85885,-0.0781 1.48829,-0.53687 1.60923,-1.17278 l 0,0 z m 62.51355,0.13975 c 6.12946,-2.05515 16.32777,-7.19877 22.79111,-11.4949 5.74763,-3.82042 12.17294,-9.62564 12.17294,-10.99818 0,-1.5195 -2.5141,-1.49919 -15.57286,0.12578 l -13.59122,1.69121 -1.97881,3.3991 c -1.08834,1.86951 -3.53469,5.58086 -5.43634,8.24746 -7.20738,10.10661 -6.88994,11.88123 1.61518,9.02953 l 0,0 z m 50.53407,-53.59005 c 9.06964,-2.37313 15.60089,-6.48196 19.65737,-12.36652 0.93504,-1.35643 3.10672,-5.27312 4.82596,-8.70379 l 3.12589,-6.23754 -0.6575,-16.23911 c -0.99792,-24.64723 -2.07177,-30.14701 -8.34396,-42.73424 -4.00579,-8.038956 -6.1426,-11.045286 -8.84022,-12.437616 -6.14604,-3.17214 -39.87025,-9.155461 -58.45926,-10.3718 -14.95025,-0.978242 -57.64383,-1.373176 -68.22503,-0.63111 -20.845681,1.461922 -46.448531,5.3714 -62.563192,9.5532 -3.807123,0.98796 -4.057027,1.16067 -6.342576,4.38343 -3.190559,4.498876 -7.709005,13.624706 -9.495343,19.177616 -3.109891,9.66722 -3.902327,15.00731 -3.941796,26.56309 l -0.03668,10.74039 2.652592,5.48055 c 4.816091,9.95057 9.867634,15.21687 17.739232,18.49337 4.773514,1.98695 12.508412,3.1263 18.271007,2.69131 3.201505,-0.24166 5.015623,-0.75861 8.035188,-2.28968 4.632379,-2.34885 13.914577,-8.3473 24.074828,-15.55791 5.94517,-4.21922 7.64563,-5.16787 8.84397,-4.93385 1.61731,0.31582 10.60772,5.62755 20.91493,12.35698 l 6.54539,4.27338 7.87741,-2.22158 c 4.33257,-1.22187 8.79865,-2.36861 9.92463,-2.54832 2.48414,-0.39647 3.43422,0.0608 16.91077,8.13963 13.39089,8.02744 22.39531,12.55953 29.19726,14.6955 7.24055,2.27372 7.6413,2.32496 16.4193,2.09913 5.13676,-0.13215 8.72875,-0.5474 11.88983,-1.37451 z M 225.15328,80.169597 c 0,-3.075097 -15.45855,-14.935237 -28.30914,-21.719402 -8.26377,-4.362663 -16.78469,-6.865617 -17.79861,-5.228208 -0.49675,0.802207 0.8179,3.322245 4.74723,9.099914 2.00804,2.952626 4.85868,7.648531 6.33476,10.435346 l 2.68378,5.066935 12.34926,1.786622 c 6.79209,0.982642 14.06903,1.817611 16.17099,1.855487 3.68288,0.06636 3.82173,0.01925 3.82173,-1.296694 z M 98.228809,78.989051 c 6.017581,-0.717798 11.007601,-1.392168 11.088931,-1.4986 0.0814,-0.106431 1.3156,-2.355004 2.74282,-4.996826 1.4272,-2.641823 4.53847,-7.698983 6.91393,-11.238133 2.37546,-3.539152 4.24124,-6.844962 4.1462,-7.346246 -0.51006,-2.689936 -7.58627,-0.631431 -20.01516,5.822508 -10.862995,5.640816 -24.159916,15.643831 -24.944936,18.765595 -0.725053,2.883291 -0.108109,2.898407 20.068215,0.491702 l 0,0 z m 83.469941,-3.453546 c 3.37502,-0.579058 2.79599,-2.40329 -3.47666,-10.953221 -11.388,-15.52241 -25.32594,-20.466009 -38.96139,-13.819078 -6.22198,3.033059 -13.96494,10.788335 -18.99278,19.023005 -2.70901,4.43684 -2.77609,5.929606 -0.2831,6.299124 2.63443,0.39048 59.16908,-0.113206 61.71393,-0.54983 z"
     id="path5476"
     inkscape:connector-curvature="0" />
</svg>
